<?xml version="1.0" encoding="utf-8"?>
<!-- Generator: Adobe Illustrator 17.1.0, SVG Export Plug-In . SVG Version: 6.00 Build 0)  -->
<!DOCTYPE svg PUBLIC "-//W3C//DTD SVG 1.1//EN" "http://www.w3.org/Graphics/SVG/1.1/DTD/svg11.dtd">
<svg version="1.1" xmlns="http://www.w3.org/2000/svg" xmlns:xlink="http://www.w3.org/1999/xlink" x="0px" y="0px"
	 viewBox="0 0 116.755 76.809" enable-background="new 0 0 116.755 76.809" xml:space="preserve">
<g id="Ebene_1" display="none">
	<rect x="-47.31" y="-770.694" display="inline" fill="#3F4243" width="1001" height="1297.82"/>
	<rect x="-14.2" y="-727.809" display="inline" fill="none" width="538.473" height="65.997"/>
	
		<text transform="matrix(1 0 0 1 -14.1997 -694.2095)" display="inline" fill="#FFFFFF" font-family="'Jocham-Regular'" font-size="48">Über Lebensmittel.punkt</text>
	<rect x="-18.7" y="-425.643" display="inline" fill="none" width="538.473" height="65.997"/>
	
		<text transform="matrix(1 0 0 1 -18.6995 -392.0432)" display="inline" fill="#FFFFFF" font-family="'Jocham-Regular'" font-size="48">Menü.punkte</text>
	<rect x="-15.422" y="-121.783" display="inline" fill="none" width="538.473" height="65.997"/>
	
		<text transform="matrix(1 0 0 1 -15.4218 -88.1835)" display="inline" fill="#FFFFFF" font-family="'Jocham-Regular'" font-size="48">weitere Icons</text>
</g>
<g id="Ebene_2">
	<g>
		<g>
			<g>
				<g>
					<path fill="#FFFFFF" d="M78.376-611.572c-1.781-0.531-3.718-1.573-5.53-3.114c-4.134-3.521-5.972-8.142-4.095-10.331
						c0.29-0.347,0.676-0.58,1.096-0.771l-14.673-24.493l-33.931,72.105c3.402,1.595,6.899,3.064,10.617,4.197
						c19.735,6.03,39.981,3.941,57.293-4.219c0,0,5.451-2.266,6.266-4.942L78.376-611.572z M65.358-621.053
						c2.362,2.008,2.648,5.538,0.641,7.898c-2.011,2.362-5.542,2.647-7.904,0.641c-2.353-2.011-2.635-5.549-0.633-7.904
						C59.473-622.776,63.009-623.062,65.358-621.053z M42.036-589.976c-3.363-2.862-3.766-7.904-0.902-11.263
						c2.86-3.358,7.905-3.77,11.263-0.908c3.359,2.862,3.766,7.909,0.901,11.265C50.442-587.519,45.407-587.114,42.036-589.976z
						 M65.662-587.445c-2.184-1.859-2.44-5.146-0.585-7.336c1.872-2.189,5.153-2.453,7.333-0.589
						c2.197,1.865,2.461,5.148,0.598,7.339C71.139-585.844,67.859-585.582,65.662-587.445z"/>
				</g>
			</g>
		</g>
		<g>
			<g>
				<g>
					<path fill="#FFFFFF" d="M55.166-556.571c-23.869,0-39.729-9.412-40.77-10.043l5.001-8.205l-2.501,4.104l2.492-4.11
						c1.448,0.875,35.981,21.074,79.84-3.469l4.68,8.388C85.847-559.802,69.133-556.571,55.166-556.571z"/>
				</g>
			</g>
		</g>
	</g>
	<g>
		<g>
			<g>
				<path fill="#FFFFFF" d="M388.72-569.576c0,0,1.809,10.291-7.717,10.291c-10.904,0-56.304,0-66.306,0
					c-7.571,0-6.796-8.931-6.796-8.931v-47.788h80.82V-569.576z"/>
			</g>
		</g>
		<g>
			<g>
				<path fill="#FFFFFF" d="M296.689-603.485c0,2.009,1.621,3.634,3.628,3.634h6.659c2.015,0,3.636-1.625,3.636-3.634l0,0
					c0-2.003-1.621-3.632-3.636-3.632h-6.659C298.31-607.117,296.689-605.489,296.689-603.485L296.689-603.485z"/>
			</g>
		</g>
		<g>
			<g>
				<path fill="#FFFFFF" d="M383.714-603.485c0,2.009,1.626,3.634,3.627,3.634H394c2.011,0,3.627-1.625,3.627-3.634l0,0
					c0-2.003-1.617-3.632-3.627-3.632h-6.659C385.34-607.117,383.714-605.489,383.714-603.485L383.714-603.485z"/>
			</g>
		</g>
		<g>
			<g>
				<path fill="#FFFFFF" d="M393.671-621.346c0,1.882-1.529,3.4-3.398,3.4h-83.801c-1.873,0-3.398-1.518-3.398-3.4l0,0
					c0-1.88,1.525-3.4,3.398-3.4h83.801C392.141-624.747,393.671-623.226,393.671-621.346L393.671-621.346z"/>
			</g>
		</g>
		<g>
			<g>
				<path fill="#FFFFFF" d="M338.086-630.884c-1.241-2.02-2.057-4.298-2.377-6.726c-0.183-1.216-0.137-2.482,0.137-3.746
					c0.256-1.225,1.058-2.542,1.814-3.378c1.181-1.527,1.42-3.868,1.365-6.082c-0.073-2.258-0.467-4.548-0.939-6.858
					c1.177,2.058,1.956,4.332,2.34,6.73c0.348,2.361,0.311,5.052-1.355,7.348c-1.558,1.58-1.951,3.634-1.979,5.892
					C337.111-635.464,337.541-633.169,338.086-630.884z"/>
			</g>
		</g>
		<g>
			<g>
				<path fill="#FFFFFF" d="M346.65-630.884c-1.232-2.02-2.052-4.298-2.372-6.726c-0.183-1.216-0.124-2.482,0.142-3.746
					c0.247-1.225,1.062-2.542,1.804-3.378c1.182-1.527,1.42-3.868,1.374-6.082c-0.073-2.258-0.485-4.548-0.948-6.858
					c1.181,2.058,1.946,4.332,2.34,6.73c0.348,2.361,0.32,5.052-1.356,7.348c-1.548,1.58-1.946,3.634-1.978,5.892
					C345.675-635.464,346.105-633.169,346.65-630.884z"/>
			</g>
		</g>
		<g>
			<g>
				<path fill="#FFFFFF" d="M354.788-630.884c-1.246-2.02-2.056-4.298-2.377-6.726c-0.179-1.216-0.124-2.482,0.137-3.746
					c0.256-1.225,1.058-2.542,1.809-3.378c1.191-1.527,1.424-3.868,1.374-6.082c-0.078-2.258-0.476-4.548-0.944-6.858
					c1.191,2.058,1.951,4.332,2.327,6.73c0.357,2.361,0.325,5.052-1.346,7.348c-1.553,1.58-1.942,3.634-1.969,5.892
					C353.818-635.464,354.239-633.169,354.788-630.884z"/>
			</g>
		</g>
	</g>
	<g>
		<path fill="#FFFFFF" d="M485.99-656.735c-31.287,0-56.737,20.076-56.737,44.745c0,14.742,9.13,27.797,23.119,35.96l-5.563,25.914
			l29.491-17.794l-0.093-0.049c3.178,0.441,6.437,0.721,9.783,0.721c31.283,0,56.734-20.076,56.734-44.752
			C542.724-636.659,517.274-656.735,485.99-656.735z M485.99-573.35c-27.92,0-50.637-17.339-50.637-38.64
			c0-21.308,22.717-38.641,50.637-38.641c27.915,0,50.628,17.332,50.628,38.641C536.619-590.689,513.905-573.35,485.99-573.35z"/>
	</g>
	<g>
		<g>
			<g>
				<path fill="#FFFFFF" d="M577.805-570.937l0.644-1.959c0,0,5.295-49.84,49.831-49.84c0,0-16.912,14.938-5.124,22.124
					c0,0-0.515-21.18,17.912-23.381c12.32-2.592,14.616-3.484,14.616-3.484s13.029-2.296,14.05-13.052
					c1.03-10.754,3.081-8.321,11.273,2.498c8.192,10.823,12.282,27.229,3.069,19.281c-5.961-4.109-7.295-5.242-7.295-5.242
					s-8.832-6.868-6.531,10.572c2.309,17.44,8.651,41.332-6.806,40.525h-84.994"/>
			</g>
		</g>
		<g>
			<g>
				<polygon fill="#FFFFFF" points="683.655,-566.725 570.045,-566.725 570.045,-595.816 574.405,-595.816 574.405,-571.089 
					679.286,-571.089 679.286,-599.3 683.655,-599.3 				"/>
			</g>
		</g>
		<g>
			<g>
				<path fill="#FFFFFF" d="M617.611-632.796c-2.206-0.824-4.017-3.021-4.313-5.761c-0.348-2.777,0.957-5.405,2.523-7.267
					c1.352-1.498,2.245-2.839,2.691-4.429c0.408-1.558,0.129-3.53-0.901-5.63c2.231,0.706,4.137,2.982,4.308,5.796
					c0.236,2.804-1.3,5.379-2.776,7.096c-1.232,1.395-2.094,2.839-2.446,4.448C616.358-636.92,616.675-634.931,617.611-632.796z"/>
			</g>
		</g>
		<g>
			<g>
				<path fill="#FFFFFF" d="M628.777-630.324c-1.781-0.431-3.322-2.081-3.613-4.244c-0.36-2.199,0.67-4.287,1.862-5.721
					c0.97-1.075,1.554-1.903,1.961-2.909c0.365-0.98,0.391-2.388-0.21-4.124c1.794,0.335,3.424,2.056,3.617,4.287
					c0.262,2.227-0.948,4.287-2.047,5.579c-0.867,0.963-1.442,1.871-1.785,2.901C628.228-633.504,628.262-632.067,628.777-630.324z"
					/>
			</g>
		</g>
	</g>
	<g>
		<g>
			<g>
				<g>
					<path fill="#FFFFFF" d="M767.162-622.519c0-9.061,3.101-17.386,8.274-24.022c-15.587,5.177-26.842,19.856-26.842,37.181
						c0,21.642,17.557,39.195,39.199,39.195c12.589,0,23.752-5.952,30.917-15.166c-3.884,1.292-8.031,2.015-12.357,2.015
						C784.711-583.316,767.162-600.869,767.162-622.519z"/>
				</g>
			</g>
		</g>
		<g>
			<g>
				<polygon fill="#FFFFFF" points="740.692,-639.183 740.806,-645.386 735.758,-648.996 741.688,-650.813 743.558,-656.735 
					747.115,-651.642 753.334,-651.695 749.586,-646.739 751.555,-640.855 745.69,-642.877 				"/>
			</g>
		</g>
		<g>
			<g>
				<polygon fill="#FFFFFF" points="795.745,-626.434 795.829,-631.512 791.701,-634.454 796.558,-635.944 798.086,-640.787 
					800.998,-636.621 806.069,-636.666 803.012,-632.615 804.624,-627.802 799.827,-629.452 				"/>
			</g>
		</g>
		<g>
			<g>
				<polygon fill="#FFFFFF" points="788.113,-604.221 788.181,-607.939 785.163,-610.09 788.705,-611.177 789.823,-614.712 
					791.952,-611.671 795.669,-611.709 793.426,-608.744 794.601,-605.232 791.093,-606.426 				"/>
			</g>
		</g>
	</g>
	<path fill="#FFFFFF" d="M79.025-327.899c-1.697,10.245-3.21,19.471-4.754,28.691c-2.561,15.291-5.149,30.579-7.712,45.87
		c-0.862,5.143-2.433,6.282-7.493,4.551c-5.826-1.993-11.534-4.342-17.252-6.639c-5.264-2.115-5.242-2.176-8.293,2.257
		c-0.517,0.752-0.959,1.561-1.52,2.278c-2.713,3.467-4.883,3.553-7.491-0.154c-2.09-2.971-3.783-6.242-5.459-9.48
		c-2.005-3.874-5.024-6.357-9.132-7.759c-3.887-1.326-7.745-2.77-11.516-4.393c-5.581-2.402-5.791-5.044-0.722-8.671
		c3.151-2.255,6.447-4.309,9.68-6.449c21.119-13.979,42.239-27.956,63.359-41.933c0.571-0.378,1.097-0.926,1.725-1.097
		c1.666-0.455,3.808-1.523,4.949-0.889C78.55-331.076,78.732-328.684,79.025-327.899z M70.312-310.393
		c-0.028-0.083-0.303-0.892-0.577-1.701c-0.748,0.42-1.779,0.652-2.2,1.288c-4.784,7.235-9.48,14.528-14.188,21.814
		c-4.584,7.094-9.254,14.135-13.688,21.321c-2.138,3.465-1.657,4.596,2.154,6.192c4.634,1.94,9.313,3.784,14.038,5.49
		c3.984,1.438,5.379,0.607,6.23-3.599c0.542-2.679,0.74-5.425,1.182-8.126C65.554-281.678,67.872-295.637,70.312-310.393z
		 M17.607-270.972c1.871-1.388,3.841-2.471,5.325-4.02c4.408-4.599,8.594-9.411,12.924-14.086
		c6.496-7.015,13.044-13.983,19.561-20.978c0.463-0.497,0.941-1.016,1.248-1.609c0.146-0.281-0.062-0.775-0.191-1.144
		c-0.025-0.073-0.453-0.09-0.64-0.007c-0.829,0.37-1.695,0.699-2.445,1.197c-14.793,9.826-29.575,19.667-44.346,29.527
		c-1.132,0.756-2.23,1.593-3.216,2.528c-1.128,1.069-1.607,2.478,0.093,3.316C9.576-274.447,13.346-272.877,17.607-270.972z
		 M65.847-314.454c-0.263-0.177-0.525-0.355-0.788-0.532c-0.55,0.381-1.185,0.68-1.637,1.154
		c-10.507,11.03-21.015,22.059-31.471,33.138c-2.806,2.973-5.382,6.162-8.178,9.144c-1.796,1.915-2.255,3.892-0.92,6.172
		c1.146,1.959,2.265,3.947,3.582,5.79c1.161,1.626,2.62,1.695,3.927,0.062c0.71-0.886,1.354-1.829,1.969-2.785
		C43.508-279.688,54.676-297.072,65.847-314.454z"/>
	<g>
		<path fill="#FFFFFF" d="M168.069-250.557c-11.867,0-23.735,0.069-35.602-0.021c-9.514-0.073-13.138-3.574-13.214-12.88
			c-0.11-13.597-0.098-27.196-0.004-40.793c0.057-8.249,2.971-11.927,11.141-12.828c6.608-0.729,10.933-3.233,13.063-9.861
			c1.849-5.753,6.16-8.5,12.531-8.262c8.147,0.305,16.323,0.305,24.471,0c6.373-0.239,10.696,2.516,12.53,8.264
			c2.217,6.949,6.591,9.541,13.674,9.992c7.16,0.456,10.447,4.598,10.517,11.828c0.137,14.091,0.149,28.185,0.007,42.276
			c-0.094,9.269-3.18,12.176-12.77,12.26C192.299-250.477,180.184-250.557,168.069-250.557z M126.65-284.99
			c0,6.183-0.079,12.368,0.021,18.55c0.119,7.348,0.985,8.362,8.018,8.391c22.259,0.089,44.52,0.085,66.779,0.007
			c7.275-0.025,8.194-0.957,8.276-8.124c0.12-10.387,0.042-20.776,0.041-31.163c-0.001-11.442,0.048-11.748-10.871-13.608
			c-5.358-0.913-8.473-3.501-10.164-8.365c-0.405-1.167-0.989-2.275-1.349-3.453c-1.102-3.609-3.563-5.057-7.249-5.022
			c-7.914,0.077-15.83,0.108-23.743-0.013c-4.098-0.063-6.711,1.708-7.509,5.64c-1.574,7.759-6.576,11.173-14.083,11.689
			c-0.735,0.051-1.461,0.253-2.188,0.401c-5.665,1.152-5.845,1.268-5.956,7.266C126.566-296.863,126.651-290.926,126.65-284.99z"/>
		<path fill="#FFFFFF" d="M168.665-312.977c14.542-0.568,24.016,11.592,24.417,24.527c0.412,13.279-11.716,25.932-24.736,25.551
			c-12.079-0.353-24.524-9.395-24.39-26.241C144.062-302.399,156.129-314.293,168.665-312.977z M185.881-288.154
			c0.068-9.827-7.939-18.236-17.456-18.331c-9.114-0.091-17.527,8.492-17.825,18.186c-0.298,9.685,8.461,18.375,18.366,18.221
			C177.99-270.219,185.814-278.58,185.881-288.154z"/>
		<path fill="#FFFFFF" d="M157.577-288.783c-0.326-0.541-0.941-1.099-0.973-1.689c-0.261-4.694,5.027-10.142,9.837-10.134
			c0.64,0.001,1.56,0.4,1.837,0.899c0.249,0.449-0.007,1.708-0.387,1.892c-3.878,1.874-6.89,4.573-8.836,8.455
			C158.903-289.055,158.216-289.018,157.577-288.783z"/>
	</g>
	<g>
		<path fill="#FFFFFF" d="M254.416-304.027c-0.665-11.922,5.254-20.442,15.097-25.755c9.594-5.178,19.837-5.23,29.257,1.217
			c2.663,1.823,4.532,1.773,7.229,0.034c10.26-6.619,21.003-6.746,31.03,0c10.98,7.387,15.322,18.387,12.872,31.339
			c-1.233,6.522-5.108,12.225-9.798,17.027c-9.771,10.004-19.65,19.904-29.604,29.725c-5.396,5.324-10.73,5.397-16.055,0.146
			c-10.831-10.68-21.564-21.461-32.208-32.326C256.433-288.546,254.392-294.599,254.416-304.027z M261.852-303.785
			c-0.316,6.437,2.469,11.417,6.707,15.865c5.579,5.856,10.981,11.88,16.572,17.724c4.412,4.612,8.902,9.157,13.533,13.547
			c3.106,2.944,4.498,2.873,7.483-0.034c2.099-2.044,3.879-4.411,5.922-6.517c8.025-8.277,16.183-16.426,24.119-24.785
			c4.753-5.007,7.578-11.127,6.4-18.064c-1.32-7.775-4.855-14.708-12.865-17.501c-8.06-2.811-15.865-2.313-22.586,4.05
			c-4.482,4.243-4.965,4.179-9.688-0.167c-7.027-6.466-15.218-6.985-23.285-3.477C266.121-319.646,262.604-312.342,261.852-303.785z
			"/>
		<path fill="#FFFFFF" d="M270.82-303.453c-0.365-0.453-1.051-0.933-1.191-1.538c-1.423-6.139,6.227-13.863,12.126-12.162
			c0.523,0.151,1.045,2.486,0.859,2.595c-4.485,2.627-8.675,5.452-10.233,10.849C272.325-303.521,271.5-303.555,270.82-303.453z"/>
	</g>
	<g>
		<path fill="#FFFFFF" d="M514.154-305.151c0.003,0.392,0.004,0.783,0.003,1.174c-0.05,16.364-12.221,25.838-28.242,21.816
			c-7.819-1.963-15.089-5.327-21.992-9.495c-0.557-0.336-1.377-0.238-2.074-0.341c0.055,0.708-0.114,1.545,0.206,2.1
			c1.166,2.028,2.491,3.966,3.765,5.932c3.578,5.521,5.918,11.428,5.815,18.139c-0.074,4.827,2.289,8.559,5.456,11.944
			c1.575,1.683,2.995,3.509,4.486,5.271c-2.489,0.228-4.99,0.365-7.463,0.706c-4.042,0.558-6.557-1.207-8.52-4.662
			c-3.334-5.865-5.863-11.722-5.53-18.799c0.418-8.869-3.39-16.773-7.496-24.358c-2.159-3.988-5.189-3.81-7.496,0.284
			c-1.622,2.878-2.882,6-3.969,9.129c-1.984,5.709-4.009,11.429-3.444,17.674c0.691,7.632-3.645,13.351-7.662,19.114
			c-0.566,0.813-1.936,1.259-3.013,1.472c-1.322,0.262-2.731,0.17-4.097,0.108c-2.126-0.097-4.247-0.299-6.37-0.456
			c1.262-1.601,2.45-3.268,3.8-4.791c4.455-5.026,7.062-10.679,6.77-17.579c-0.161-3.814,1.352-7.284,3.413-10.433
			c2.032-3.105,4.269-6.075,6.354-9.146c0.267-0.394,0.394-1.224,0.162-1.522c-0.235-0.302-1.106-0.426-1.51-0.233
			c-4.411,2.112-8.667,4.605-13.203,6.388c-4.694,1.844-9.559,3.627-14.51,4.37c-12.828,1.925-24.016-7.972-24.078-20.989
			c-0.018-3.864,0.13-7.872,1.118-11.569c2.48-9.281,8.928-13.033,18.096-14.084c7.415-0.85,14.409,1.401,20.918,4.616
			c6.1,3.013,11.987,6.541,17.663,10.302c5.258,3.484,9.593,3.725,15.013-0.191c6.181-4.467,12.892-8.041,19.88-11.076
			c5.606-2.434,11.402-4.105,17.61-3.724c1.36,0.083,2.763,0.119,4.059,0.484c9.368,2.637,16.057,7.413,16.079,20.661
			C514.152-306.326,514.151-305.738,514.154-305.151z M405.842-318.608c-10.453-0.058-17.139,4.224-19.974,10.929
			c-0.789,1.865-1.128,3.647-0.203,5.612c3.866,8.209,13.24,12.704,22.251,10.597c1.516-0.355,3.032-0.713,4.554-1.041
			c9.152-1.973,18.027-4.816,26.729-8.269c2.098-0.832,3.223-1.855,3.227-4.184c0.003-2.451-1.463-3.346-3.466-4.029
			c-5.158-1.76-10.207-3.885-15.442-5.359C416.811-316.24,409.964-317.633,405.842-318.608z M494.613-318.661
			c-0.972,0.086-2.549,0.096-4.074,0.383c-10.934,2.059-21.455,5.532-31.882,9.34c-2.063,0.753-3.275,1.825-3.232,4.212
			c0.043,2.428,1.46,3.191,3.453,4.015c11.04,4.565,22.596,7.34,34.168,10.058c1.473,0.346,3.187,0.379,4.635-0.013
			c6.294-1.704,11.215-5.285,14.307-11.164c1.078-2.05,1.213-4.138,0.106-6.15C508.439-314.627,503.027-318.558,494.613-318.661z"/>
		<ellipse fill="#FFFFFF" cx="448.936" cy="-302.84" rx="8.312" ry="6.431"/>
	</g>
	<g>
		<path fill="#FFFFFF" d="M258.311-609.177c0.003,0.392,0.004,0.783,0.003,1.174c-0.05,16.364-12.221,25.838-28.242,21.816
			c-7.819-1.963-15.089-5.327-21.992-9.495c-0.557-0.336-1.377-0.238-2.074-0.341c0.055,0.708-0.114,1.545,0.206,2.1
			c1.166,2.028,2.491,3.966,3.765,5.932c3.578,5.521,5.918,11.428,5.815,18.139c-0.074,4.827,2.289,8.559,5.456,11.944
			c1.575,1.683,2.995,3.509,4.486,5.271c-2.489,0.229-4.99,0.365-7.463,0.706c-4.042,0.558-6.557-1.207-8.52-4.662
			c-3.334-5.865-5.863-11.722-5.53-18.799c0.418-8.869-3.39-16.773-7.496-24.358c-2.159-3.988-5.189-3.81-7.496,0.284
			c-1.622,2.878-2.882,6-3.969,9.129c-1.984,5.709-4.009,11.429-3.444,17.674c0.691,7.632-3.645,13.351-7.662,19.114
			c-0.566,0.812-1.936,1.259-3.013,1.472c-1.322,0.262-2.731,0.17-4.097,0.108c-2.126-0.097-4.247-0.299-6.37-0.456
			c1.262-1.601,2.45-3.268,3.8-4.791c4.455-5.026,7.062-10.679,6.77-17.579c-0.161-3.814,1.352-7.284,3.413-10.433
			c2.032-3.105,4.269-6.075,6.354-9.146c0.268-0.394,0.394-1.224,0.162-1.522c-0.235-0.302-1.106-0.426-1.51-0.233
			c-4.411,2.112-8.667,4.605-13.203,6.388c-4.694,1.844-9.559,3.627-14.51,4.37c-12.828,1.925-24.016-7.972-24.078-20.989
			c-0.018-3.864,0.13-7.872,1.118-11.569c2.48-9.281,8.928-13.033,18.096-14.084c7.415-0.85,14.409,1.401,20.918,4.616
			c6.1,3.013,11.987,6.541,17.663,10.302c5.258,3.484,9.593,3.725,15.013-0.191c6.181-4.467,12.892-8.041,19.88-11.076
			c5.606-2.434,11.402-4.105,17.61-3.724c1.36,0.083,2.763,0.119,4.059,0.484c9.368,2.637,16.057,7.413,16.079,20.661
			C258.31-610.351,258.309-609.764,258.311-609.177z M149.999-622.633c-10.453-0.058-17.139,4.224-19.974,10.929
			c-0.789,1.865-1.128,3.647-0.203,5.612c3.866,8.209,13.24,12.704,22.251,10.596c1.516-0.355,3.032-0.713,4.554-1.041
			c9.152-1.973,18.027-4.816,26.729-8.269c2.098-0.832,3.223-1.855,3.227-4.184c0.003-2.451-1.463-3.346-3.466-4.029
			c-5.158-1.76-10.207-3.885-15.442-5.359C160.968-620.266,154.121-621.658,149.999-622.633z M238.77-622.686
			c-0.972,0.086-2.549,0.096-4.074,0.383c-10.934,2.059-21.455,5.532-31.882,9.34c-2.063,0.753-3.275,1.825-3.232,4.212
			c0.043,2.428,1.46,3.191,3.453,4.015c11.04,4.565,22.596,7.34,34.168,10.058c1.473,0.346,3.187,0.379,4.635-0.013
			c6.294-1.704,11.215-5.285,14.307-11.164c1.078-2.05,1.213-4.138,0.106-6.15C252.596-618.652,247.184-622.584,238.77-622.686z"/>
		<ellipse fill="#FFFFFF" cx="193.093" cy="-606.866" rx="8.312" ry="6.431"/>
	</g>
	<g>
		<path fill="#807778" d="M611.948-33.728c0.536,0.158,1.068,0.329,1.609,0.47c1.554,0.408,2.834,1.234,3.954,2.387
			c1.344,1.384,1.855,3.187,2.597,4.874c0.147,0.334,0.105,0.764,0.105,1.149c0.004,22.142,0.033,44.284-0.037,66.425
			c-0.008,2.71-1.427,4.873-3.47,6.761c-1.949,1.801-4.128,2.12-6.581,2.118c-35.66-0.022-71.32-0.01-106.98-0.036
			c-1.364-0.001-2.784-0.121-4.079-0.513c-1.708-0.517-3.054-1.773-4.098-3.169c-1.453-1.942-1.954-4.209-1.949-6.679
			c0.047-21.481-0.029-42.963,0.089-64.444c0.017-3.192,1.274-6.149,4.404-7.796c1.153-0.607,2.35-1.128,3.565-1.707
			c36.91,0,73.85,0,110.79,0C611.895-33.834,611.921-33.781,611.948-33.728z M610.708,27.306c0-17.286,0-34.471,0-51.717
			c-36.087,0-72.101,0-108.162,0c0,17.274,0,34.459,0,51.717C538.608,27.306,574.594,27.306,610.708,27.306z M551.291,38.098
			c0,0.534,0,1.462,0,2.165c1.128,2.08,2.385,3.642,4.818,3.629c2.457-0.014,3.634-1.669,4.701-3.612
			c0.559-3.187-1.104-5.212-2.771-5.768C555.116,33.536,552.537,34.341,551.291,38.098z"/>
		<path fill="#807778" d="M549.487,66.55c0-2.564,0-4.814,0-7.194c4.755,0,9.455,0,14.251,0c0,2.318,0,4.598,0,7.184
			c4.246,0.829,8.463,1.652,12.97,2.532c0.049,0.043,0.333,0.292,0.578,0.508c0,1.259,0,2.453,0,3.72c-13.789,0-27.519,0-41.36,0
			c0-1.476,0-2.919,0-4.444C540.468,68.082,544.949,67.321,549.487,66.55z"/>
	</g>
	<g>
		<path fill="#FFFFFF" d="M116.755,0l-0.015,15.922l-58.381,29.77L0.035,15.809L0.051,0.11l58.323,29.884L116.755,0z M116.72,31.116
			l-0.015,15.922L58.323,76.809L0,46.925l0.015-15.697l58.323,29.883L116.72,31.116z"/>
	</g>
	<g>
		<path fill="#FFFFFF" d="M218.394,37.901L160.07,67.785l-0.015-15.699l58.323-29.883l58.381,29.77l0.015,15.922L218.394,37.901z
			 M218.358,6.785l-58.323,29.883l-0.015-15.697l58.323-29.884l58.381,29.771l0.015,15.922L218.358,6.785z"/>
	</g>
	<path fill="#807778" d="M394.838,79.427c-3.431,0-6.863,0-10.294,0c-0.114-0.036-0.228-0.103-0.342-0.104
		c-3.574-0.034-7.148,0.066-10.721-0.091c-1.339-0.059-2.679,0.029-4.023-0.072c-1.467-0.11-2.946-0.074-4.419-0.109
		c-0.912-0.022-1.823-0.06-2.735-0.086c-1.163-0.033-2.326-0.056-3.489-0.092c-0.66-0.02-1.32-0.059-1.98-0.085
		c-0.808-0.032-1.616-0.079-2.424-0.086c-1.175-0.011-2.353,0.022-3.516-0.184c-0.757-0.134-1.523-0.247-2.26-0.457
		c-1.177-0.335-2.307-0.796-3.367-1.425c-0.83-0.492-1.646-1.007-2.353-1.659c-0.66-0.607-1.261-1.281-1.867-1.944
		c-0.633-0.692-1.119-1.491-1.56-2.314c-0.537-1.002-0.973-2.046-1.276-3.149c-0.244-0.888-0.398-1.789-0.494-2.698
		c-0.101-0.961-0.127-1.93-0.187-2.895c-0.058-0.936-0.119-1.871-0.177-2.807c-0.032-0.512-0.061-1.024-0.088-1.537
		c-0.032-0.616-0.062-1.231-0.089-1.847c-0.032-0.734-0.069-1.468-0.087-2.202c-0.036-1.444-0.077-2.888-0.087-4.332
		c-0.015-2.174-0.024-4.348,0.002-6.522c0.024-2.036-0.077-4.071,0.07-6.108c0.098-1.365,0.068-2.739,0.104-4.109
		c0.021-0.793,0.058-1.587,0.088-2.38c0.001-0.015,0-0.03,0.001-0.044c0.058-0.684,0.121-1.368,0.174-2.053
		c0.036-0.467,0.058-0.936,0.089-1.404c0.058-0.862,0.122-1.723,0.177-2.586c0.035-0.541,0.06-1.084,0.089-1.625
		c0.048-0.878,0.264-1.723,0.51-2.56c0.463-1.577,1.178-3.027,2.132-4.373c0.787-1.11,1.677-2.118,2.738-2.956
		c1.109-0.876,2.296-1.634,3.605-2.202c1.662-0.723,3.402-1.087,5.191-1.249c0.731-0.066,1.468-0.066,2.202-0.095
		c0.749-0.03,1.498-0.061,2.247-0.088c0.852-0.031,1.705-0.06,2.557-0.089c0.867-0.03,1.734-0.062,2.602-0.088
		c1.089-0.033,2.178-0.056,3.267-0.091c1.163-0.037,2.324,0.009,3.49-0.067c1.661-0.109,3.33-0.092,4.996-0.106
		c1.819-0.015,3.638-0.001,5.457-0.008c0.144-0.001,0.287-0.068,0.43-0.104c6.981,0,13.962,0,20.943,0
		c0.099,0.036,0.198,0.102,0.297,0.104c2.375,0.04,4.752-0.061,7.127,0.087c1.338,0.083,2.679-0.032,4.022,0.078
		c1.319,0.108,2.65,0.073,3.975,0.107c0.912,0.023,1.823,0.058,2.735,0.087c0.926,0.03,1.853,0.058,2.779,0.09
		c0.793,0.027,1.586,0.06,2.38,0.087c0.926,0.032,1.852,0.078,2.779,0.084c0.823,0.006,1.637,0.057,2.453,0.173
		c0.809,0.115,1.6,0.291,2.377,0.532c1.03,0.32,2.018,0.737,2.954,1.284c1.115,0.651,2.15,1.404,3.083,2.293
		c0.307,0.293,0.569,0.633,0.862,0.942c0.923,0.973,1.617,2.102,2.214,3.29c0.437,0.871,0.794,1.784,1.009,2.734
		c0.202,0.892,0.349,1.8,0.454,2.708c0.105,0.901,0.127,1.811,0.186,2.717c0.06,0.936,0.121,1.871,0.179,2.807
		c0.032,0.527,0.061,1.054,0.088,1.581c0.032,0.616,0.072,1.231,0.087,1.847c0.037,1.503,0.062,3.006,0.091,4.509
		c0.002,0.103-0.006,0.209,0.01,0.31c0.007,0.044,0.064,0.081,0.098,0.121c0,4.615,0,9.229,0,13.844
		c-0.036,0.084-0.102,0.168-0.104,0.253c-0.036,1.399-0.059,2.798-0.095,4.197c-0.021,0.808-0.058,1.615-0.088,2.423
		c-0.001,0.03-0.001,0.059-0.004,0.089c-0.057,0.699-0.126,1.397-0.169,2.097c-0.044,0.718-0.063,1.438-0.093,2.157
		c-0.001,0.03-0.001,0.059-0.003,0.089c-0.058,0.684-0.117,1.368-0.173,2.052c-0.032,0.393-0.067,0.787-0.086,1.181
		c-0.05,1.057-0.317,2.074-0.66,3.059c-0.295,0.849-0.699,1.663-1.097,2.472c-0.465,0.945-1.088,1.797-1.792,2.574
		c-0.598,0.66-1.268,1.258-1.931,1.854c-0.751,0.675-1.617,1.192-2.507,1.661c-1.189,0.626-2.446,1.056-3.757,1.369
		c-1.001,0.239-2.015,0.304-3.027,0.398c-0.847,0.079-1.703,0.068-2.555,0.099c-0.734,0.027-1.467,0.061-2.201,0.088
		c-0.896,0.032-1.793,0.06-2.689,0.089c-0.941,0.03-1.881,0.061-2.822,0.088c-1.118,0.032-2.236,0.055-3.354,0.091
		c-1.28,0.04-2.56-0.008-3.843,0.066c-1.941,0.112-3.89,0.089-5.836,0.108c-1.434,0.014-2.868,0.003-4.302,0.003
		c-1.316,0-2.631-0.003-3.947,0.005C395.125,79.324,394.982,79.391,394.838,79.427z M391.653,19.352c0,15.765,0,31.476,0,47.204
		c2.165,0,4.301,0,6.469,0c0-0.858,0-1.693,0-2.569c0.424,0.418,0.801,0.812,1.2,1.18c0.627,0.579,1.342,1.023,2.142,1.328
		c1.019,0.388,2.07,0.5,3.158,0.453c0.653-0.028,1.269-0.144,1.877-0.365c0.869-0.316,1.566-0.878,2.102-1.603
		c1.003-1.359,1.412-2.946,1.42-4.6c0.031-6.328,0.014-12.657,0.011-18.986c0-1.263,0.053-2.528-0.17-3.783
		c-0.071-0.401-0.023-0.826-0.111-1.222c-0.234-1.055-0.594-2.064-1.229-2.959c-0.572-0.806-1.296-1.414-2.206-1.803
		c-0.568-0.242-1.165-0.329-1.77-0.432c-0.886-0.151-1.724-0.003-2.536,0.267c-1.179,0.393-2.189,1.09-3.059,1.981
		c-0.262,0.268-0.517,0.542-0.825,0.865c0-5.02,0-9.979,0-14.958C395.95,19.352,393.814,19.352,391.653,19.352z M433.685,50.159
		c0.024-0.098,0.037-0.126,0.036-0.154c-0.079-3.641,0.202-7.288-0.171-10.924c-0.06-0.58-0.119-1.161-0.181-1.741
		c-0.006-0.057-0.025-0.114-0.044-0.169c-0.158-0.466-0.306-0.937-0.479-1.398c-0.714-1.893-1.999-3.285-3.799-4.177
		c-1.313-0.65-2.751-0.824-4.196-0.901c-0.376-0.02-0.758,0.081-1.137,0.074c-0.637-0.012-1.245,0.133-1.855,0.276
		c-1.449,0.34-2.717,1.036-3.809,2.033c-1.047,0.956-1.89,2.072-2.384,3.42c-0.321,0.874-0.68,1.742-0.616,2.705
		c0.004,0.059-0.001,0.118-0.007,0.177c-0.056,0.581-0.161,1.161-0.162,1.742c-0.013,4.998-0.011,9.996-0.004,14.994
		c0.001,0.749,0.03,1.5,0.092,2.246c0.054,0.651,0.138,1.304,0.269,1.944c0.237,1.161,0.655,2.267,1.301,3.261
		c0.716,1.101,1.617,2.022,2.765,2.706c1.273,0.759,2.655,1.102,4.107,1.185c1.172,0.067,2.342-0.006,3.499-0.253
		c1.05-0.225,2.03-0.611,2.948-1.162c0.678-0.407,1.186-1.007,1.731-1.562c0.171-0.174,0.3-0.394,0.428-0.604
		c0.618-1.012,1.059-2.093,1.323-3.255c0.224-0.987,0.329-1.987,0.375-2.988c0.054-1.166,0.013-2.336,0.012-3.504
		c0-0.142-0.014-0.284-0.022-0.43c-2.208,0-4.373,0-6.583,0c0,0.171,0,0.315,0,0.459c0,1.079-0.004,2.159,0.001,3.238
		c0.004,0.779-0.077,1.547-0.276,2.299c-0.226,0.853-0.705,1.482-1.638,1.606c-0.507,0.067-1.032,0.134-1.533,0.073
		c-0.704-0.085-1.272-0.428-1.621-1.113c-0.425-0.834-0.542-1.733-0.559-2.628c-0.045-2.365-0.016-4.732-0.014-7.098
		c0-0.114,0.015-0.227,0.026-0.376C425.579,50.159,429.624,50.159,433.685,50.159z M385.423,66.554c0-11.677,0-23.308,0-34.955
		c-2.136,0-4.242,0-6.4,0c0,0.21,0,0.398,0,0.586c0,8.296,0,16.592,0,24.889c0,0.133-0.01,0.267,0.002,0.399
		c0.016,0.177-0.048,0.303-0.176,0.426c-0.399,0.384-0.768,0.802-1.182,1.169c-0.637,0.564-1.328,1.052-2.19,1.214
		c-0.48,0.09-0.929-0.012-1.293-0.347c-0.427-0.392-0.625-0.89-0.625-1.473c0.002-8.769,0.001-17.539,0.001-26.308
		c0-0.185,0-0.37,0-0.547c-2.18,0-4.287,0-6.429,0c0,0.22,0,0.41,0,0.6c0,9.198-0.002,18.397,0.004,27.595
		c0,0.764,0.065,1.527,0.082,2.291c0.019,0.841,0.217,1.633,0.519,2.417c0.573,1.484,1.664,2.306,3.202,2.498
		c1.131,0.141,2.244-0.046,3.3-0.51c1.382-0.607,2.602-1.445,3.654-2.528c0.365-0.376,0.731-0.75,1.137-1.166
		c0,1.268,0,2.498,0,3.752C381.179,66.554,383.285,66.554,385.423,66.554z M367.236,19.358c-7.39,0-14.732,0-22.089,0
		c0,2.432,0,4.834,0,7.29c2.482,0,4.941,0,7.45,0c0,13.337,0,26.62,0,39.9c2.424,0,4.797,0,7.22,0c0-13.313,0-26.596,0-39.917
		c2.499,0,4.947,0,7.418,0C367.236,24.191,367.236,21.789,367.236,19.358z"/>
	<path fill="#807778" d="M356.661-45.166c0.142-0.023,0.285-0.067,0.427-0.067c2.13-0.004,4.26-0.004,6.389-0.002
		c0.395,0,0.434,0.039,0.531,0.427c0.824,3.277,1.654,6.553,2.472,9.832c0.664,2.66,1.313,5.324,1.97,7.986
		c0.021,0.084,0.065,0.163,0.082,0.248c0.032,0.154,0.119,0.226,0.276,0.229c0.176,0.003,0.26-0.079,0.301-0.252
		c0.136-0.578,0.29-1.153,0.432-1.73c0.262-1.07,0.526-2.141,0.78-3.213c0.367-1.553,0.722-3.109,1.091-4.661
		c0.248-1.044,0.514-2.084,0.764-3.127c0.429-1.792,0.85-3.585,1.276-5.377c0.026-0.111,0.069-0.219,0.109-0.342
		c2.401,0,4.792,0,7.226,0c-0.056,0.216-0.097,0.409-0.155,0.597c-0.438,1.414-0.881,2.826-1.319,4.239
		c-0.476,1.538-0.951,3.077-1.421,4.617c-0.436,1.43-0.859,2.863-1.298,4.292c-0.482,1.567-0.98,3.128-1.464,4.694
		c-0.458,1.483-0.908,2.969-1.36,4.454c-0.427,1.401-0.857,2.802-1.276,4.206c-0.049,0.164-0.053,0.347-0.053,0.521
		c-0.003,6.138-0.002,12.276-0.002,18.414c0,0.176,0,0.351,0,0.557c-2.385,0-4.741,0-7.151,0c0-0.175,0-0.348,0-0.521
		c0-5.783,0.002-11.566-0.007-17.349c0-0.314-0.066-0.638-0.155-0.941c-0.366-1.239-0.758-2.469-1.131-3.706
		c-0.532-1.764-1.048-3.532-1.584-5.295c-0.498-1.638-1.017-3.269-1.519-4.906c-0.506-1.65-1.001-3.304-1.503-4.956
		c-0.506-1.666-1.018-3.329-1.521-4.996c-0.352-1.167-0.692-2.337-1.044-3.503c-0.03-0.1-0.107-0.187-0.162-0.279
		C356.661-45.107,356.661-45.137,356.661-45.166z"/>
	<path fill="#807778" d="M380.551-16.102c0-3.267-0.046-6.535,0.019-9.801c0.032-1.624,0.542-3.145,1.557-4.461
		c0.782-1.014,1.733-1.831,2.872-2.399c0.857-0.428,1.779-0.682,2.73-0.863c1.098-0.209,2.197-0.167,3.296-0.148
		c0.531,0.01,1.066,0.139,1.589,0.259c0.959,0.22,1.854,0.618,2.666,1.163c1.767,1.187,2.932,2.835,3.472,4.89
		c0.187,0.712,0.294,1.467,0.297,2.203c0.023,6.224,0.024,12.448,0.005,18.672c-0.004,1.317-0.275,2.596-0.782,3.825
		c-0.344,0.833-0.808,1.582-1.409,2.244c-0.75,0.826-1.613,1.503-2.647,1.958c-0.71,0.313-1.443,0.522-2.198,0.679
		c-1.061,0.221-2.137,0.223-3.204,0.159c-1.104-0.066-2.174-0.332-3.204-0.772c-1.188-0.508-2.165-1.289-2.984-2.253
		c-0.777-0.913-1.326-1.964-1.645-3.141c-0.313-1.158-0.441-2.324-0.434-3.52C380.563-10.307,380.551-13.205,380.551-16.102z
		 M392.531-15.924c0-3.252-0.004-6.504,0.004-9.756c0.001-0.604-0.262-1.104-0.684-1.458c-0.941-0.789-2.035-0.94-3.205-0.566
		c-0.388,0.124-0.733,0.342-0.973,0.642c-0.385,0.482-0.6,1.043-0.598,1.694c0.011,6.208,0.005,12.416,0.011,18.624
		c0,0.393,0.018,0.794,0.094,1.178c0.148,0.738,0.549,1.328,1.228,1.672c0.738,0.373,1.54,0.389,2.306,0.147
		c1.065-0.336,1.826-1.327,1.822-2.511C392.523-9.479,392.531-12.702,392.531-15.924z"/>
	<path fill="#807778" d="M422.731,1.384c-2.104,0-4.184,0-6.317,0c0-1.219,0-2.436,0-3.652c-0.033-0.012-0.065-0.023-0.098-0.035
		c-0.102,0.13-0.191,0.273-0.309,0.387c-0.614,0.593-1.214,1.205-1.862,1.76c-0.665,0.57-1.422,1.01-2.216,1.387
		c-1.061,0.504-2.172,0.781-3.348,0.699c-1.067-0.074-2.029-0.437-2.738-1.278c-0.564-0.669-0.891-1.466-1.06-2.319
		c-0.093-0.47-0.124-0.953-0.185-1.429c-0.188-1.47-0.08-2.947-0.082-4.421c-0.013-8.297-0.006-16.594-0.006-24.892
		c0-0.175,0-0.35,0-0.553c2.122,0,4.213,0,6.353,0c0,0.197,0,0.385,0,0.573c0,8.563-0.004,17.127,0.008,25.69
		c0.001,0.576,0.051,1.155,0.322,1.702c0.254,0.514,0.685,0.685,1.186,0.754c0.513,0.07,0.975-0.119,1.424-0.346
		c0.991-0.5,1.725-1.305,2.484-2.081c0.064-0.065,0.096-0.177,0.109-0.273c0.018-0.131,0.005-0.266,0.005-0.399
		c0-8.356,0-16.713,0-25.069c0-0.175,0-0.35,0-0.552c2.124,0,4.214,0,6.329,0C422.731-21.522,422.731-10.095,422.731,1.384z"/>
	<path fill="#807778" d="M398.142,49.274c0-3.326,0.027-6.653-0.022-9.978c-0.01-0.683,0.287-1.082,0.748-1.43
		c0.826-0.625,1.755-0.838,2.773-0.572c0.565,0.147,0.981,0.473,1.264,0.993c0.343,0.63,0.519,1.299,0.519,2.01
		c0.004,6.283,0.008,12.566-0.006,18.849c-0.002,0.718-0.174,1.401-0.752,1.927c-0.556,0.506-1.219,0.568-1.893,0.473
		c-0.777-0.11-1.425-0.507-2.057-0.991c-0.48-0.368-0.587-0.751-0.584-1.301C398.151,55.926,398.142,52.6,398.142,49.274z"/>
	<path fill="#807778" d="M427.121,44.257c-1.904,0-3.736,0-5.604,0c-0.012-0.116-0.034-0.227-0.034-0.339
		c-0.003-1.079-0.027-2.159,0.008-3.237c0.021-0.667,0.141-1.33,0.382-1.962c0.333-0.872,1.017-1.307,1.897-1.409
		c0.458-0.053,0.938,0.008,1.399,0.08c0.818,0.127,1.305,0.676,1.588,1.412c0.259,0.672,0.34,1.387,0.358,2.1
		c0.025,0.975,0.006,1.951,0.006,2.927C427.12,43.959,427.121,44.088,427.121,44.257z"/>
	<path fill="#FFFFFF" stroke="#FFFFFF" stroke-width="5" stroke-miterlimit="10" d="M717.036-21.958v37.654h36.211v9.613h-36.211
		v37.973h-10.254V25.309H670.57v-9.613h36.211v-37.654H717.036z"/>
	<path fill="#FFFFFF" d="M2.9,161.704c-0.091-5.348,4.26-9.518,9.518-9.518c5.257,0,9.517,4.17,9.517,9.427
		c0,5.348-4.17,9.517-9.517,9.517C7.16,171.13,2.9,167.052,2.9,161.704z"/>
	<path fill="#FFFFFF" d="M45.859,161.704c-0.091-5.348,4.26-9.518,9.518-9.518c5.257,0,9.517,4.17,9.517,9.427
		c0,5.348-4.169,9.517-9.517,9.517C50.12,171.13,45.859,167.052,45.859,161.704z"/>
	<path fill="#FFFFFF" d="M88.819,161.704c-0.091-5.348,4.26-9.518,9.518-9.518c5.257,0,9.517,4.17,9.517,9.427
		c0,5.348-4.17,9.517-9.517,9.517C93.079,171.13,88.819,167.052,88.819,161.704z"/>
	<path fill="#FFFFFF" d="M131.779,161.704c-0.091-5.348,4.26-9.518,9.518-9.518c5.257,0,9.517,4.17,9.517,9.427
		c0,5.348-4.169,9.517-9.517,9.517C136.039,171.13,131.779,167.052,131.779,161.704z"/>
</g>
</svg>
