<?xml version="1.0" encoding="utf-8"?>
<!-- Generator: Adobe Illustrator 17.1.0, SVG Export Plug-In . SVG Version: 6.00 Build 0)  -->
<!DOCTYPE svg PUBLIC "-//W3C//DTD SVG 1.1//EN" "http://www.w3.org/Graphics/SVG/1.1/DTD/svg11.dtd">
<svg version="1.1" xmlns="http://www.w3.org/2000/svg" xmlns:xlink="http://www.w3.org/1999/xlink" x="0px" y="0px"
	 viewBox="0 0 98.109 84.69" enable-background="new 0 0 98.109 84.69" xml:space="preserve">
<g id="Ebene_1" display="none">
	<rect x="-166.485" y="-435.476" display="inline" fill="#3F4243" width="1001" height="1297.82"/>
</g>
<g id="Ebene_2">
	<g>
		<path fill="#FFFFFF" d="M48.894,84.661c-11.867,0-23.735,0.069-35.602-0.021c-9.514-0.073-13.138-3.574-13.214-12.88
			c-0.11-13.597-0.098-27.196-0.004-40.793c0.057-8.249,2.971-11.927,11.141-12.828c6.608-0.729,10.933-3.233,13.063-9.861
			c1.849-5.753,6.16-8.5,12.531-8.262c8.147,0.305,16.323,0.305,24.471,0c6.373-0.239,10.696,2.516,12.53,8.264
			c2.217,6.949,6.591,9.541,13.674,9.992c7.16,0.456,10.447,4.598,10.517,11.828c0.137,14.091,0.149,28.185,0.007,42.276
			c-0.094,9.269-3.18,12.176-12.77,12.26C73.123,84.741,61.008,84.66,48.894,84.661z M7.475,50.228
			c0,6.183-0.079,12.368,0.021,18.55c0.119,7.348,0.985,8.362,8.018,8.391c22.259,0.089,44.52,0.085,66.779,0.007
			c7.275-0.025,8.194-0.957,8.276-8.124c0.12-10.387,0.042-20.776,0.041-31.163c-0.001-11.442,0.048-11.748-10.871-13.608
			c-5.358-0.913-8.473-3.501-10.164-8.365c-0.405-1.167-0.989-2.275-1.349-3.453c-1.102-3.609-3.563-5.057-7.249-5.022
			c-7.914,0.077-15.83,0.108-23.743-0.013c-4.098-0.063-6.711,1.708-7.509,5.64c-1.574,7.759-6.576,11.173-14.083,11.689
			c-0.735,0.051-1.461,0.253-2.188,0.401C7.79,26.307,7.611,26.423,7.5,32.421C7.39,38.354,7.476,44.292,7.475,50.228z"/>
		<path fill="#FFFFFF" d="M49.49,22.24c14.542-0.568,24.016,11.592,24.417,24.527c0.412,13.279-11.716,25.932-24.736,25.551
			c-12.079-0.353-24.524-9.395-24.39-26.241C24.886,32.819,36.954,20.925,49.49,22.24z M66.705,47.064
			c0.068-9.827-7.939-18.236-17.456-18.331c-9.114-0.091-17.527,8.492-17.825,18.186c-0.298,9.685,8.461,18.375,18.366,18.221
			C58.814,64.999,66.639,56.637,66.705,47.064z"/>
		<path fill="#FFFFFF" d="M38.402,46.435c-0.326-0.541-0.941-1.099-0.973-1.689c-0.261-4.694,5.027-10.142,9.837-10.134
			c0.64,0.001,1.56,0.399,1.837,0.899c0.249,0.449-0.007,1.708-0.387,1.892c-3.878,1.874-6.89,4.573-8.836,8.455
			C39.727,46.162,39.04,46.2,38.402,46.435z"/>
	</g>
</g>
</svg>
