<?xml version="1.0" encoding="utf-8"?>
<!-- Generator: Adobe Illustrator 17.1.0, SVG Export Plug-In . SVG Version: 6.00 Build 0)  -->
<!DOCTYPE svg PUBLIC "-//W3C//DTD SVG 1.1//EN" "http://www.w3.org/Graphics/SVG/1.1/DTD/svg11.dtd">
<svg version="1.1" xmlns="http://www.w3.org/2000/svg" xmlns:xlink="http://www.w3.org/1999/xlink" x="0px" y="0px"
	 viewBox="0 0 130.443 80.364" enable-background="new 0 0 130.443 80.364" xml:space="preserve">
<g id="Ebene_1" display="none">
	<rect x="-431.024" y="-442.528" display="inline" fill="#3F4243" width="1001" height="1297.82"/>
</g>
<g id="Ebene_2">
	<g>
		<path fill="#FFFFFF" d="M130.44,23.015c0.003,0.391,0.004,0.783,0.003,1.174c-0.05,16.364-12.221,25.838-28.242,21.816
			c-7.819-1.963-15.089-5.327-21.992-9.495c-0.557-0.336-1.377-0.238-2.074-0.341c0.055,0.708-0.114,1.545,0.206,2.1
			c1.166,2.028,2.491,3.966,3.765,5.932c3.578,5.521,5.918,11.428,5.815,18.139c-0.074,4.827,2.289,8.559,5.456,11.944
			c1.575,1.683,2.995,3.509,4.486,5.271c-2.489,0.228-4.99,0.365-7.463,0.706c-4.042,0.558-6.557-1.207-8.52-4.662
			c-3.334-5.865-5.863-11.722-5.53-18.799c0.418-8.869-3.39-16.773-7.496-24.358c-2.159-3.988-5.189-3.81-7.496,0.284
			c-1.622,2.878-2.882,6-3.969,9.129c-1.984,5.709-4.009,11.429-3.444,17.674c0.691,7.632-3.645,13.351-7.662,19.114
			c-0.566,0.813-1.936,1.259-3.013,1.472c-1.322,0.262-2.731,0.17-4.097,0.108c-2.126-0.097-4.247-0.299-6.37-0.456
			c1.262-1.601,2.45-3.268,3.8-4.791c4.455-5.026,7.062-10.679,6.77-17.579c-0.161-3.814,1.352-7.284,3.413-10.433
			c2.032-3.105,4.269-6.075,6.354-9.146c0.268-0.394,0.394-1.224,0.162-1.522c-0.235-0.302-1.106-0.426-1.51-0.233
			c-4.411,2.112-8.667,4.605-13.203,6.388c-4.694,1.844-9.559,3.627-14.51,4.37C11.252,48.748,0.064,38.85,0.001,25.833
			c-0.018-3.864,0.13-7.872,1.118-11.569C3.6,4.983,10.048,1.232,19.215,0.181c7.415-0.85,14.409,1.401,20.918,4.616
			c6.1,3.013,11.987,6.541,17.663,10.302c5.258,3.484,9.593,3.725,15.013-0.191c6.181-4.467,12.892-8.041,19.88-11.076
			c5.606-2.434,11.402-4.105,17.61-3.724c1.36,0.083,2.763,0.119,4.059,0.484c9.368,2.637,16.057,7.413,16.079,20.661
			C130.438,21.84,130.437,22.428,130.44,23.015z M22.128,9.558C11.675,9.5,4.989,13.782,2.154,20.486
			c-0.789,1.865-1.128,3.647-0.203,5.612c3.866,8.209,13.24,12.704,22.251,10.597c1.516-0.355,3.032-0.713,4.554-1.041
			c9.152-1.973,18.027-4.816,26.729-8.269c2.098-0.832,3.223-1.855,3.227-4.184c0.003-2.451-1.463-3.346-3.466-4.029
			c-5.158-1.76-10.207-3.885-15.442-5.359C33.097,11.925,26.25,10.533,22.128,9.558z M110.899,9.505
			c-0.972,0.086-2.549,0.096-4.074,0.383c-10.934,2.059-21.455,5.532-31.882,9.34c-2.063,0.753-3.275,1.825-3.232,4.212
			c0.043,2.428,1.46,3.191,3.453,4.015c11.04,4.565,22.596,7.34,34.168,10.058c1.473,0.346,3.187,0.379,4.635-0.013
			c6.294-1.704,11.215-5.285,14.307-11.164c1.078-2.05,1.213-4.138,0.106-6.15C124.725,13.539,119.313,9.607,110.899,9.505z"/>
		<ellipse fill="#FFFFFF" cx="65.221" cy="25.326" rx="8.312" ry="6.431"/>
	</g>
</g>
</svg>
