<?xml version="1.0" encoding="utf-8"?>
<!-- Generator: Adobe Illustrator 17.1.0, SVG Export Plug-In . SVG Version: 6.00 Build 0)  -->
<!DOCTYPE svg PUBLIC "-//W3C//DTD SVG 1.1//EN" "http://www.w3.org/Graphics/SVG/1.1/DTD/svg11.dtd">
<svg version="1.1" xmlns="http://www.w3.org/2000/svg" xmlns:xlink="http://www.w3.org/1999/xlink" x="0px" y="0px"
	 viewBox="0 0 105.416 124.664" enable-background="new 0 0 105.416 124.664" xml:space="preserve">
<g id="Ebene_1" display="none">
	<rect x="-384.298" y="-725.456" display="inline" fill="#3F4243" width="1001" height="1297.82"/>
</g>
<g id="Ebene_2">
	<g>
		<path fill="#807778" d="M57.85,124.664c-3.431,0-6.863,0-10.294,0c-0.114-0.036-0.228-0.103-0.342-0.104
			c-3.574-0.034-7.148,0.066-10.721-0.091c-1.339-0.059-2.679,0.029-4.023-0.072c-1.467-0.11-2.946-0.074-4.419-0.109
			c-0.912-0.022-1.823-0.06-2.735-0.086c-1.163-0.033-2.326-0.056-3.489-0.092c-0.66-0.02-1.32-0.059-1.98-0.085
			c-0.808-0.032-1.616-0.079-2.424-0.086c-1.175-0.011-2.353,0.022-3.516-0.184c-0.757-0.134-1.523-0.247-2.26-0.457
			c-1.177-0.335-2.307-0.796-3.367-1.425c-0.83-0.492-1.646-1.007-2.353-1.659c-0.66-0.607-1.261-1.281-1.867-1.944
			c-0.633-0.692-1.119-1.491-1.56-2.314c-0.537-1.002-0.973-2.046-1.276-3.149c-0.244-0.888-0.398-1.789-0.494-2.698
			c-0.101-0.961-0.127-1.93-0.187-2.895c-0.058-0.936-0.119-1.871-0.177-2.807c-0.032-0.512-0.061-1.024-0.088-1.537
			c-0.032-0.616-0.062-1.231-0.089-1.847c-0.032-0.734-0.069-1.468-0.087-2.202c-0.036-1.444-0.077-2.888-0.087-4.332
			C0,92.316-0.01,90.141,0.016,87.968c0.024-2.036-0.077-4.071,0.07-6.108c0.098-1.365,0.068-2.739,0.104-4.109
			c0.021-0.793,0.058-1.587,0.088-2.38c0.001-0.015,0-0.03,0.001-0.044c0.058-0.684,0.121-1.368,0.174-2.053
			c0.036-0.467,0.058-0.936,0.089-1.404c0.058-0.862,0.122-1.723,0.177-2.586c0.035-0.541,0.06-1.084,0.089-1.625
			c0.048-0.878,0.264-1.723,0.51-2.56c0.463-1.577,1.178-3.027,2.132-4.373c0.787-1.11,1.677-2.118,2.738-2.956
			c1.109-0.876,2.296-1.634,3.605-2.202c1.662-0.722,3.402-1.087,5.191-1.249c0.731-0.066,1.468-0.066,2.202-0.095
			c0.749-0.03,1.498-0.061,2.247-0.088c0.852-0.031,1.705-0.06,2.557-0.089c0.867-0.03,1.734-0.062,2.602-0.088
			c1.089-0.033,2.178-0.056,3.267-0.091c1.163-0.037,2.324,0.009,3.49-0.067c1.661-0.109,3.33-0.092,4.996-0.106
			c1.819-0.015,3.638-0.001,5.457-0.008c0.144-0.001,0.287-0.068,0.43-0.104c6.981,0,13.962,0,20.943,0
			c0.099,0.036,0.198,0.102,0.297,0.104c2.375,0.04,4.752-0.061,7.127,0.087c1.338,0.083,2.679-0.032,4.022,0.078
			c1.319,0.108,2.65,0.073,3.975,0.107c0.912,0.023,1.823,0.058,2.735,0.087c0.926,0.03,1.853,0.058,2.779,0.09
			c0.793,0.027,1.586,0.06,2.38,0.087c0.926,0.032,1.852,0.078,2.779,0.084c0.823,0.006,1.637,0.057,2.453,0.173
			c0.809,0.115,1.6,0.291,2.377,0.532c1.03,0.32,2.018,0.737,2.955,1.284c1.115,0.651,2.15,1.404,3.083,2.293
			c0.307,0.293,0.569,0.633,0.862,0.942c0.923,0.973,1.617,2.102,2.214,3.29c0.437,0.871,0.794,1.784,1.009,2.734
			c0.202,0.892,0.349,1.8,0.454,2.708c0.105,0.901,0.127,1.811,0.186,2.717c0.06,0.936,0.121,1.871,0.179,2.807
			c0.032,0.527,0.061,1.054,0.088,1.581c0.032,0.616,0.072,1.231,0.087,1.847c0.037,1.503,0.062,3.006,0.091,4.509
			c0.002,0.103-0.006,0.209,0.01,0.31c0.007,0.044,0.064,0.081,0.098,0.121c0,4.615,0,9.229,0,13.844
			c-0.036,0.084-0.102,0.168-0.104,0.253c-0.036,1.399-0.059,2.798-0.095,4.197c-0.021,0.808-0.058,1.615-0.088,2.423
			c-0.001,0.03-0.001,0.059-0.004,0.089c-0.057,0.699-0.126,1.397-0.169,2.097c-0.044,0.718-0.063,1.438-0.093,2.157
			c-0.001,0.03-0.001,0.059-0.003,0.089c-0.058,0.684-0.117,1.368-0.173,2.052c-0.032,0.393-0.067,0.787-0.086,1.181
			c-0.05,1.057-0.317,2.074-0.66,3.059c-0.295,0.849-0.699,1.663-1.097,2.472c-0.465,0.945-1.088,1.797-1.792,2.574
			c-0.598,0.66-1.268,1.258-1.932,1.854c-0.751,0.675-1.617,1.192-2.507,1.661c-1.189,0.626-2.446,1.056-3.757,1.369
			c-1.001,0.239-2.015,0.304-3.027,0.398c-0.847,0.079-1.703,0.068-2.555,0.099c-0.734,0.027-1.467,0.061-2.201,0.088
			c-0.896,0.032-1.793,0.06-2.689,0.089c-0.941,0.03-1.881,0.061-2.822,0.088c-1.118,0.032-2.236,0.055-3.354,0.091
			c-1.28,0.04-2.56-0.008-3.843,0.066c-1.941,0.112-3.89,0.089-5.836,0.108c-1.434,0.014-2.868,0.003-4.302,0.003
			c-1.316,0-2.631-0.003-3.947,0.005C58.137,124.561,57.994,124.628,57.85,124.664z M54.665,64.589c0,15.765,0,31.476,0,47.204
			c2.165,0,4.301,0,6.469,0c0-0.858,0-1.693,0-2.569c0.424,0.418,0.801,0.812,1.2,1.18c0.627,0.579,1.342,1.023,2.142,1.328
			c1.019,0.388,2.07,0.5,3.158,0.453c0.653-0.028,1.269-0.144,1.877-0.365c0.869-0.316,1.566-0.878,2.102-1.603
			c1.003-1.359,1.412-2.946,1.42-4.6c0.031-6.328,0.014-12.657,0.011-18.986c0-1.263,0.053-2.528-0.17-3.783
			c-0.071-0.401-0.023-0.826-0.111-1.222c-0.234-1.055-0.594-2.064-1.229-2.959c-0.572-0.806-1.296-1.414-2.206-1.803
			c-0.568-0.242-1.165-0.329-1.77-0.432c-0.886-0.151-1.724-0.003-2.536,0.267c-1.179,0.393-2.189,1.09-3.059,1.981
			c-0.262,0.268-0.517,0.542-0.825,0.865c0-5.02,0-9.979,0-14.958C58.962,64.589,56.826,64.589,54.665,64.589z M96.696,95.396
			c0.024-0.098,0.037-0.126,0.036-0.154c-0.079-3.641,0.202-7.288-0.171-10.924c-0.06-0.58-0.119-1.161-0.181-1.741
			c-0.006-0.057-0.025-0.114-0.044-0.169c-0.158-0.466-0.306-0.937-0.479-1.398c-0.714-1.893-1.999-3.285-3.799-4.177
			c-1.313-0.65-2.751-0.824-4.196-0.901c-0.376-0.02-0.758,0.081-1.137,0.074c-0.637-0.012-1.245,0.133-1.855,0.276
			c-1.449,0.34-2.717,1.036-3.809,2.033c-1.047,0.956-1.89,2.072-2.384,3.42c-0.321,0.874-0.68,1.742-0.616,2.705
			c0.004,0.059-0.001,0.118-0.007,0.177c-0.056,0.581-0.161,1.161-0.162,1.742c-0.013,4.998-0.011,9.996-0.004,14.994
			c0.001,0.749,0.03,1.5,0.092,2.246c0.054,0.651,0.138,1.304,0.269,1.944c0.237,1.161,0.655,2.267,1.301,3.261
			c0.716,1.101,1.617,2.022,2.765,2.706c1.273,0.759,2.655,1.102,4.107,1.185c1.172,0.067,2.342-0.006,3.499-0.253
			c1.05-0.225,2.03-0.611,2.948-1.162c0.678-0.407,1.186-1.007,1.731-1.562c0.171-0.174,0.3-0.394,0.428-0.604
			c0.618-1.012,1.059-2.093,1.323-3.255c0.224-0.987,0.329-1.987,0.375-2.988c0.054-1.166,0.013-2.336,0.012-3.504
			c0-0.142-0.014-0.284-0.022-0.43c-2.208,0-4.373,0-6.583,0c0,0.171,0,0.315,0,0.459c0,1.079-0.004,2.159,0.001,3.238
			c0.004,0.779-0.077,1.547-0.276,2.299c-0.226,0.853-0.705,1.482-1.638,1.606c-0.507,0.067-1.032,0.134-1.533,0.073
			c-0.704-0.085-1.272-0.428-1.621-1.113c-0.425-0.834-0.542-1.733-0.559-2.628c-0.045-2.365-0.016-4.732-0.014-7.098
			c0-0.114,0.015-0.227,0.026-0.376C88.591,95.396,92.636,95.396,96.696,95.396z M48.435,111.792c0-11.677,0-23.308,0-34.955
			c-2.136,0-4.242,0-6.4,0c0,0.21,0,0.398,0,0.586c0,8.296,0,16.592,0,24.889c0,0.133-0.01,0.267,0.002,0.399
			c0.016,0.177-0.048,0.303-0.176,0.426c-0.399,0.384-0.768,0.802-1.182,1.169c-0.637,0.564-1.328,1.052-2.19,1.214
			c-0.48,0.09-0.929-0.012-1.293-0.347c-0.427-0.392-0.625-0.89-0.625-1.473c0.002-8.769,0.001-17.539,0.001-26.308
			c0-0.185,0-0.37,0-0.547c-2.18,0-4.287,0-6.429,0c0,0.22,0,0.41,0,0.6c0,9.198-0.002,18.397,0.004,27.595
			c0,0.764,0.065,1.527,0.082,2.291c0.019,0.841,0.217,1.633,0.519,2.417c0.573,1.484,1.664,2.306,3.202,2.498
			c1.131,0.141,2.244-0.046,3.3-0.51c1.382-0.607,2.602-1.445,3.654-2.528c0.365-0.376,0.731-0.75,1.137-1.166
			c0,1.268,0,2.498,0,3.752C44.191,111.792,46.297,111.792,48.435,111.792z M30.248,64.596c-7.39,0-14.732,0-22.089,0
			c0,2.432,0,4.834,0,7.29c2.482,0,4.941,0,7.45,0c0,13.337,0,26.62,0,39.9c2.424,0,4.797,0,7.22,0c0-13.313,0-26.596,0-39.917
			c2.499,0,4.947,0,7.418,0C30.248,69.428,30.248,67.026,30.248,64.596z"/>
		<path fill="#807778" d="M19.673,0.071c0.142-0.023,0.285-0.067,0.427-0.067c2.13-0.004,4.26-0.004,6.389-0.002
			c0.395,0,0.434,0.039,0.531,0.427c0.824,3.277,1.654,6.553,2.472,9.832c0.664,2.66,1.313,5.324,1.97,7.986
			c0.021,0.084,0.065,0.163,0.082,0.248c0.032,0.154,0.119,0.226,0.276,0.229c0.176,0.003,0.26-0.079,0.301-0.252
			c0.136-0.578,0.29-1.153,0.432-1.73c0.262-1.07,0.526-2.141,0.78-3.213c0.367-1.553,0.722-3.109,1.091-4.661
			c0.248-1.044,0.514-2.084,0.764-3.127c0.429-1.792,0.85-3.585,1.276-5.377c0.026-0.111,0.069-0.219,0.109-0.342
			c2.401,0,4.792,0,7.226,0c-0.056,0.216-0.097,0.409-0.155,0.597c-0.438,1.414-0.881,2.826-1.319,4.239
			c-0.476,1.538-0.951,3.077-1.421,4.617c-0.436,1.43-0.859,2.863-1.298,4.292c-0.482,1.567-0.98,3.128-1.464,4.694
			c-0.458,1.483-0.908,2.969-1.36,4.454c-0.427,1.401-0.857,2.802-1.276,4.206c-0.049,0.164-0.053,0.347-0.053,0.521
			c-0.003,6.138-0.002,12.276-0.002,18.414c0,0.176,0,0.351,0,0.557c-2.384,0-4.741,0-7.151,0c0-0.175,0-0.348,0-0.521
			c0-5.783,0.002-11.566-0.007-17.349c0-0.314-0.066-0.638-0.155-0.941c-0.366-1.239-0.758-2.469-1.131-3.706
			c-0.532-1.764-1.048-3.532-1.584-5.295c-0.498-1.638-1.017-3.269-1.519-4.906c-0.506-1.65-1.001-3.304-1.503-4.956
			c-0.506-1.666-1.018-3.329-1.521-4.996c-0.352-1.167-0.692-2.337-1.044-3.503c-0.03-0.1-0.107-0.187-0.162-0.279
			C19.673,0.13,19.673,0.1,19.673,0.071z"/>
		<path fill="#807778" d="M43.563,29.135c0-3.267-0.046-6.535,0.019-9.801c0.032-1.624,0.542-3.145,1.557-4.461
			c0.782-1.014,1.733-1.831,2.872-2.399c0.857-0.428,1.779-0.682,2.73-0.863c1.098-0.209,2.197-0.167,3.296-0.148
			c0.531,0.01,1.066,0.139,1.589,0.259c0.959,0.22,1.854,0.618,2.666,1.163c1.767,1.187,2.932,2.835,3.472,4.89
			c0.187,0.712,0.294,1.467,0.297,2.203c0.023,6.224,0.024,12.448,0.005,18.672c-0.004,1.317-0.275,2.596-0.782,3.825
			c-0.344,0.833-0.808,1.582-1.409,2.244c-0.75,0.826-1.613,1.503-2.647,1.958c-0.709,0.313-1.443,0.522-2.198,0.679
			c-1.061,0.221-2.137,0.223-3.204,0.159c-1.104-0.066-2.174-0.332-3.204-0.772c-1.188-0.508-2.165-1.289-2.984-2.253
			c-0.777-0.913-1.326-1.964-1.645-3.141c-0.313-1.158-0.441-2.324-0.434-3.52C43.575,34.93,43.563,32.032,43.563,29.135z
			 M55.543,29.313c0-3.252-0.004-6.504,0.004-9.756c0.001-0.604-0.262-1.104-0.684-1.458c-0.941-0.789-2.035-0.94-3.205-0.566
			c-0.388,0.124-0.733,0.342-0.973,0.642c-0.385,0.482-0.6,1.043-0.598,1.694c0.011,6.208,0.005,12.416,0.011,18.624
			c0,0.393,0.018,0.794,0.094,1.178c0.148,0.738,0.549,1.328,1.228,1.672c0.738,0.373,1.54,0.389,2.306,0.147
			c1.065-0.336,1.826-1.327,1.822-2.511C55.535,35.758,55.543,32.535,55.543,29.313z"/>
		<path fill="#807778" d="M85.743,46.621c-2.104,0-4.184,0-6.317,0c0-1.219,0-2.436,0-3.652c-0.033-0.012-0.065-0.023-0.098-0.035
			c-0.102,0.13-0.191,0.273-0.309,0.387c-0.614,0.593-1.214,1.205-1.862,1.76c-0.665,0.57-1.422,1.01-2.216,1.387
			c-1.061,0.504-2.172,0.781-3.348,0.699c-1.067-0.074-2.029-0.437-2.738-1.278c-0.564-0.669-0.891-1.466-1.06-2.319
			c-0.093-0.47-0.124-0.953-0.185-1.429c-0.188-1.47-0.08-2.947-0.082-4.421c-0.013-8.297-0.006-16.594-0.006-24.892
			c0-0.175,0-0.35,0-0.553c2.122,0,4.213,0,6.353,0c0,0.197,0,0.385,0,0.573c0,8.563-0.004,17.127,0.008,25.69
			c0.001,0.576,0.051,1.155,0.322,1.702c0.254,0.514,0.685,0.685,1.186,0.754c0.513,0.07,0.975-0.119,1.424-0.346
			c0.991-0.5,1.725-1.305,2.484-2.081c0.064-0.065,0.096-0.177,0.109-0.273c0.018-0.131,0.005-0.266,0.005-0.399
			c0-8.356,0-16.713,0-25.069c0-0.175,0-0.35,0-0.552c2.124,0,4.214,0,6.329,0C85.743,23.715,85.743,35.142,85.743,46.621z"/>
		<path fill="#807778" d="M61.154,94.511c0-3.326,0.027-6.653-0.022-9.978c-0.01-0.683,0.287-1.082,0.748-1.43
			c0.826-0.625,1.755-0.838,2.773-0.572c0.565,0.147,0.981,0.473,1.264,0.993c0.343,0.63,0.519,1.299,0.519,2.01
			c0.004,6.283,0.008,12.566-0.006,18.849c-0.002,0.718-0.174,1.401-0.752,1.927c-0.556,0.506-1.219,0.568-1.893,0.473
			c-0.777-0.11-1.425-0.507-2.057-0.991c-0.48-0.368-0.587-0.751-0.584-1.301C61.163,101.163,61.153,97.837,61.154,94.511z"/>
		<path fill="#807778" d="M90.132,89.494c-1.904,0-3.736,0-5.604,0c-0.012-0.116-0.034-0.227-0.034-0.339
			c-0.003-1.079-0.027-2.159,0.008-3.237c0.021-0.667,0.141-1.33,0.382-1.962c0.333-0.872,1.017-1.307,1.897-1.409
			c0.458-0.053,0.938,0.008,1.399,0.08c0.818,0.127,1.304,0.676,1.588,1.412c0.259,0.672,0.34,1.387,0.358,2.1
			c0.025,0.975,0.006,1.951,0.006,2.927C90.132,89.196,90.132,89.325,90.132,89.494z"/>
	</g>
</g>
</svg>
