<?xml version="1.0" encoding="utf-8"?>
<!-- Generator: Adobe Illustrator 17.1.0, SVG Export Plug-In . SVG Version: 6.00 Build 0)  -->
<!DOCTYPE svg PUBLIC "-//W3C//DTD SVG 1.1//EN" "http://www.w3.org/Graphics/SVG/1.1/DTD/svg11.dtd">
<svg version="1.1" xmlns="http://www.w3.org/2000/svg" xmlns:xlink="http://www.w3.org/1999/xlink" x="0px" y="0px"
	 viewBox="0 0 96.2 87.142" enable-background="new 0 0 96.2 87.142" xml:space="preserve">
<g id="Ebene_1" display="none">
	<rect x="-301.675" y="-437.149" display="inline" fill="#3F4243" width="1001" height="1297.82"/>
</g>
<g id="Ebene_2">
	<g>
		<path fill="#FFFFFF" d="M0.051,29.517C-0.614,17.595,5.305,9.075,15.148,3.762c9.594-5.178,19.837-5.23,29.257,1.217
			c2.663,1.823,4.532,1.773,7.229,0.034c10.26-6.619,21.003-6.746,31.03,0c10.98,7.387,15.321,18.387,12.872,31.339
			c-1.233,6.522-5.108,12.225-9.798,17.027c-9.771,10.004-19.65,19.904-29.604,29.725c-5.396,5.324-10.73,5.397-16.055,0.146
			C29.249,72.569,18.516,61.789,7.872,50.923C2.068,44.999,0.027,38.945,0.051,29.517z M7.487,29.76
			c-0.316,6.437,2.469,11.417,6.707,15.865c5.579,5.856,10.981,11.88,16.572,17.724c4.412,4.612,8.902,9.157,13.533,13.547
			c3.106,2.944,4.498,2.873,7.483-0.034c2.099-2.044,3.879-4.411,5.922-6.517c8.025-8.277,16.183-16.426,24.119-24.785
			c4.753-5.007,7.578-11.127,6.4-18.064c-1.32-7.775-4.855-14.708-12.865-17.501c-8.06-2.811-15.865-2.313-22.586,4.05
			c-4.482,4.243-4.965,4.179-9.688-0.167C36.058,7.412,27.868,6.893,19.8,10.401C11.756,13.898,8.239,21.203,7.487,29.76z"/>
		<path fill="#FFFFFF" d="M16.455,30.091c-0.365-0.453-1.051-0.933-1.191-1.538c-1.423-6.139,6.227-13.863,12.126-12.162
			c0.523,0.151,1.045,2.486,0.859,2.595c-4.485,2.627-8.675,5.452-10.233,10.849C17.96,30.024,17.135,29.99,16.455,30.091z"/>
	</g>
</g>
</svg>
