<?xml version="1.0" encoding="utf-8"?>
<!-- Generator: Adobe Illustrator 17.1.0, SVG Export Plug-In . SVG Version: 6.00 Build 0)  -->
<!DOCTYPE svg PUBLIC "-//W3C//DTD SVG 1.1//EN" "http://www.w3.org/Graphics/SVG/1.1/DTD/svg11.dtd">
<svg version="1.1" xmlns="http://www.w3.org/2000/svg" xmlns:xlink="http://www.w3.org/1999/xlink" x="0px" y="0px"
	 viewBox="0 0 127.204 107.185" enable-background="new 0 0 127.204 107.185" xml:space="preserve">
<g id="Ebene_1" display="none">
	<rect x="-540.329" y="-736.807" display="inline" fill="#3F4243" width="1001" height="1297.82"/>
</g>
<g id="Ebene_2">
	<g>
		<path fill="#807778" d="M118.929,0.159c0.536,0.158,1.068,0.329,1.609,0.47c1.554,0.408,2.834,1.234,3.954,2.387
			c1.344,1.384,1.855,3.187,2.597,4.874c0.147,0.334,0.105,0.764,0.106,1.149c0.004,22.142,0.033,44.284-0.037,66.425
			c-0.009,2.71-1.427,4.873-3.47,6.761c-1.949,1.801-4.128,2.12-6.581,2.118c-35.66-0.022-71.32-0.01-106.98-0.036
			c-1.364-0.001-2.784-0.121-4.079-0.513c-1.708-0.517-3.054-1.773-4.098-3.169C0.496,78.684-0.005,76.416,0,73.947
			C0.047,52.466-0.029,30.984,0.089,9.503c0.017-3.192,1.274-6.149,4.404-7.796C5.645,1.1,6.843,0.579,8.058,0
			c36.91,0,73.85,0,110.79,0C118.875,0.053,118.902,0.106,118.929,0.159z M117.689,61.193c0-17.286,0-34.471,0-51.717
			c-36.087,0-72.101,0-108.162,0c0,17.274,0,34.459,0,51.717C45.588,61.193,81.575,61.193,117.689,61.193z M58.271,71.985
			c0,0.534,0,1.462,0,2.165c1.128,2.08,2.385,3.642,4.818,3.629c2.457-0.014,3.634-1.669,4.701-3.612
			c0.559-3.187-1.104-5.212-2.771-5.768C62.097,67.423,59.518,68.227,58.271,71.985z"/>
		<path fill="#807778" d="M56.468,100.436c0-2.564,0-4.814,0-7.194c4.754,0,9.455,0,14.251,0c0,2.318,0,4.598,0,7.184
			c4.246,0.829,8.463,1.652,12.97,2.532c0.049,0.043,0.333,0.292,0.578,0.508c0,1.259,0,2.453,0,3.72c-13.789,0-27.519,0-41.36,0
			c0-1.476,0-2.919,0-4.444C47.449,101.969,51.93,101.207,56.468,100.436z"/>
	</g>
</g>
</svg>
