<?xml version="1.0" encoding="utf-8"?>
<!-- Generator: Adobe Illustrator 17.1.0, SVG Export Plug-In . SVG Version: 6.00 Build 0)  -->
<!DOCTYPE svg PUBLIC "-//W3C//DTD SVG 1.1//EN" "http://www.w3.org/Graphics/SVG/1.1/DTD/svg11.dtd">
<svg version="1.1" xmlns="http://www.w3.org/2000/svg" xmlns:xlink="http://www.w3.org/1999/xlink" x="0px" y="0px"
	 viewBox="0 0 84.985 83.881" enable-background="new 0 0 84.985 83.881" xml:space="preserve">
<g id="Ebene_1" display="none">
	<rect x="-41.35" y="-438.78" display="inline" fill="#3F4243" width="1001" height="1297.82"/>
</g>
<g id="Ebene_2">
	<path fill="#FFFFFF" d="M84.985,4.015c-1.697,10.245-3.21,19.471-4.754,28.691c-2.561,15.291-5.149,30.579-7.712,45.869
		c-0.862,5.143-2.433,6.282-7.493,4.551c-5.826-1.993-11.534-4.342-17.252-6.639c-5.264-2.115-5.242-2.176-8.293,2.257
		c-0.517,0.752-0.959,1.561-1.52,2.278c-2.713,3.467-4.883,3.553-7.491-0.154c-2.09-2.971-3.783-6.242-5.459-9.48
		c-2.005-3.874-5.024-6.357-9.132-7.759c-3.887-1.326-7.745-2.77-11.516-4.393c-5.581-2.402-5.791-5.044-0.722-8.671
		c3.151-2.255,6.447-4.309,9.68-6.45C34.44,30.137,55.56,16.16,76.68,2.182c0.571-0.378,1.097-0.926,1.725-1.097
		c1.666-0.455,3.808-1.523,4.949-0.889C84.509,0.838,84.691,3.23,84.985,4.015z M76.272,21.521
		c-0.028-0.083-0.303-0.892-0.577-1.701c-0.748,0.42-1.779,0.652-2.2,1.288c-4.784,7.235-9.48,14.528-14.188,21.814
		c-4.584,7.094-9.254,14.135-13.688,21.321c-2.138,3.465-1.657,4.596,2.154,6.192c4.634,1.94,9.313,3.784,14.038,5.49
		c3.984,1.438,5.379,0.607,6.23-3.599c0.542-2.679,0.74-5.425,1.182-8.126C71.513,50.236,73.832,36.277,76.272,21.521z
		 M23.566,60.942c1.871-1.388,3.841-2.471,5.325-4.02c4.408-4.599,8.594-9.411,12.924-14.086
		c6.496-7.015,13.044-13.983,19.561-20.978c0.463-0.497,0.941-1.016,1.248-1.609c0.146-0.281-0.062-0.775-0.191-1.144
		c-0.025-0.073-0.453-0.09-0.64-0.007c-0.829,0.37-1.695,0.699-2.445,1.197C44.556,30.12,29.774,39.961,15.003,49.821
		c-1.132,0.756-2.23,1.593-3.216,2.528c-1.128,1.069-1.607,2.478,0.093,3.316C15.536,57.466,19.305,59.036,23.566,60.942z
		 M71.806,17.46c-0.263-0.177-0.525-0.355-0.788-0.532c-0.55,0.381-1.185,0.68-1.637,1.154C58.874,29.112,48.366,40.141,37.91,51.22
		c-2.806,2.973-5.382,6.162-8.178,9.144c-1.796,1.915-2.255,3.892-0.92,6.172c1.146,1.959,2.265,3.947,3.582,5.79
		c1.161,1.626,2.62,1.695,3.927,0.062c0.71-0.886,1.354-1.829,1.969-2.785C49.467,52.225,60.636,34.842,71.806,17.46z"/>
</g>
</svg>
